<?xml version="1.0" encoding="utf-8"?>
<!-- Generator: Adobe Illustrator 17.1.0, SVG Export Plug-In . SVG Version: 6.00 Build 0)  -->
<!DOCTYPE svg PUBLIC "-//W3C//DTD SVG 1.1//EN" "http://www.w3.org/Graphics/SVG/1.1/DTD/svg11.dtd">
<svg version="1.1" id="Layer_1" xmlns="http://www.w3.org/2000/svg" xmlns:xlink="http://www.w3.org/1999/xlink" x="0px" y="0px"
	 viewBox="0 0 240 70" style="enable-background:new 0 0 240 70;" xml:space="preserve">
<g>
	<path style="fill:#80BE42;" d="M36.7,37.3c0-0.7-0.4-1.4-1-1.7l-15.9-9.2c-0.3-0.1-0.6-0.3-0.8-0.3h-0.1c-0.3,0-0.6,0.1-0.8,0.3
		L2,35.6c-0.6,0.3-1,1-1,1.7V62c0,0.3,0.1,0.7,0.4,0.8c0.3,0.1,0.7,0.1,1,0l9.5-5.4c0.6-0.4,1-1,1-1.7V44.1c0-0.7,0.4-1.3,1-1.7
		l4-2.4c0.3-0.1,0.7-0.3,1-0.3c0.3,0,0.7,0.1,1,0.3l4,2.4c0.6,0.3,1,1,1,1.7v11.6c0,0.7,0.4,1.3,1,1.7l9.5,5.4c0.3,0.1,0.7,0.1,1,0
		c0.3-0.1,0.4-0.4,0.4-0.8L36.7,37.3z"/>
	<path style="fill:#80BE42;" d="M121.6,3.5c-0.3-0.1-0.7-0.1-1,0c-0.3,0.1-0.4,0.4-0.4,0.8v24.4c0,0.3-0.1,0.4-0.3,0.6
		c-0.1,0.1-0.4,0.1-0.7,0l-4-2.2c-0.6-0.3-1.4-0.3-1.9,0l-15.9,9.2c-0.6,0.3-1,1-1,1.7v18.4c0,0.7,0.4,1.3,1,1.7l15.9,9.2
		c0.6,0.3,1.4,0.3,1.9,0l15.9-9.2c0.6-0.3,1-1,1-1.7V10.4c0-0.7-0.4-1.4-1-1.7L121.6,3.5z M120,50.1c0,0.1-0.1,0.3-0.3,0.4l-5.4,3.2
		c-0.1,0.1-0.3,0.1-0.4,0l-5.4-3.2c-0.1-0.1-0.3-0.3-0.3-0.4v-6.3c0-0.1,0.1-0.3,0.3-0.4l5.4-3.2c0.1-0.1,0.3-0.1,0.4,0l5.4,3.2
		c0.1,0.1,0.3,0.3,0.3,0.4V50.1z"/>
	<path style="fill:#80BE42;" d="M178.4,43.6c0.6-0.3,1-1,1-1.7v-4.5c0-0.7-0.4-1.3-1-1.7l-15.7-9.1c-0.6-0.3-1.4-0.3-1.9,0
		l-15.9,9.2c-0.6,0.3-1,1-1,1.7V56c0,0.7,0.4,1.4,1,1.7l15.7,9.1c0.6,0.3,1.3,0.3,1.9,0l9.6-5.3c0.3-0.1,0.6-0.4,0.6-0.8
		c0-0.3-0.1-0.7-0.4-0.8l-16-9.2c-0.3-0.1-0.4-0.6-0.4-0.8V44c0-0.3,0.1-0.7,0.4-0.8l5-2.9c0.3-0.1,0.7-0.1,1,0l5,2.9
		c0.3,0.1,0.4,0.6,0.4,0.8v4.5c0,0.3,0.1,0.7,0.4,0.8c0.3,0.1,0.7,0.1,1,0L178.4,43.6z"/>
	<path style="fill:#80BE42;" d="M65.5,26.6c0.6-0.3,1.4-0.3,1.9,0l15.9,9.2c0.6,0.3,1,1,1,1.7v18.4c0,0.7-0.4,1.3-1,1.7l-15.9,9.2
		c-0.6,0.3-1.4,0.3-1.9,0l-15.9-9.2c-0.6-0.3-1-1-1-1.7V37.4c0-0.7,0.4-1.3,1-1.7L65.5,26.6z"/>
	<path style="fill:#80BE42;" d="M209.4,66.9c-0.6,0-1.1-0.1-1.5-0.4l-5-2.9c-0.7-0.4-0.4-0.6-0.1-0.7c1-0.3,1.3-0.4,2.2-1
		c0.1,0,0.3,0,0.4,0l3.9,2.2c0.1,0.1,0.3,0.1,0.4,0l15-8.6c0.1-0.1,0.3-0.3,0.3-0.4V37.9c0-0.1-0.1-0.3-0.3-0.4l-15-8.6
		c-0.1-0.1-0.3-0.1-0.4,0l-15,8.6c-0.1,0.1-0.3,0.3-0.3,0.4v17.3c0,0.1,0.1,0.3,0.3,0.4l4,2.4c2.2,1.1,3.6-0.1,3.6-1.5V39.3
		c0-0.3,0.1-0.4,0.4-0.4h1.9c0.3,0,0.4,0.1,0.4,0.4v17.1c0,2.9-1.7,4.7-4.5,4.7c-0.8,0-1.5,0-3.5-1l-3.9-2.2c-1-0.6-1.5-1.7-1.5-2.8
		V37.9c0-1.1,0.6-2.2,1.5-2.8l15-8.6c1-0.6,2.2-0.6,3.2,0l15,8.6c1,0.6,1.5,1.7,1.5,2.8v17.3c0,1.1-0.6,2.2-1.5,2.8l-15,8.6
		C210.3,66.7,209.9,66.9,209.4,66.9z"/>
	<path style="fill:#80BE42;" d="M214,55c-6.6,0-7.9-3.1-7.9-5.6c0-0.3,0.1-0.4,0.4-0.4h1.9c0.3,0,0.4,0.1,0.4,0.4
		c0.3,1.9,1.1,2.9,5.2,2.9c3.2,0,4.5-0.7,4.5-2.4c0-1-0.4-1.7-5.3-2.2c-4-0.4-6.7-1.3-6.7-4.6c0-3.1,2.5-4.9,6.8-4.9
		c4.7,0,7.2,1.7,7.5,5.3c0,0.1,0,0.3-0.1,0.3c-0.1,0.1-0.1,0.1-0.3,0.1h-1.9c-0.1,0-0.4-0.1-0.4-0.3c-0.4-2.1-1.5-2.8-4.7-2.8
		c-3.5,0-3.9,1.3-3.9,2.1c0,1.1,0.4,1.4,5.2,2.1c4.6,0.6,6.8,1.5,6.8,4.7C221.3,53.1,218.7,55,214,55z"/>
	<path style="fill:#80BE42;" d="M161.4,42.8c0.1,0,0.3,0,0.4,0l3.1,1.8c0.1,0,0.1,0.1,0.1,0.3v3.5c0,0.1-0.1,0.3-0.1,0.3l-3.1,1.8
		c-0.1,0-0.3,0-0.4,0l-3.1-1.8c-0.1,0-0.1-0.1-0.1-0.3v-3.5c0-0.1,0.1-0.3,0.1-0.3L161.4,42.8z"/>
	<g>
		<path style="fill:#80BE42;" d="M237.8,31.1c0,1.5-1.3,2.9-2.9,2.9c-1.5,0-2.9-1.3-2.9-2.9c0-1.7,1.4-2.9,2.9-2.9
			C236.5,28.3,237.8,29.5,237.8,31.1z M232.5,31.1c0,1.4,1.1,2.4,2.4,2.4c1.4,0,2.4-1.1,2.4-2.4c0-1.4-1.1-2.4-2.4-2.4
			C233.6,28.7,232.5,29.8,232.5,31.1z M233.9,29.5h1.1c0.4,0,1.1,0,1.1,0.8c0,0.6-0.4,0.7-0.6,0.8c0.4,0,0.4,0.3,0.6,0.7
			c0,0.3,0.1,0.7,0.1,0.8h-0.7c0-0.1-0.1-1-0.1-1c0-0.1-0.1-0.3-0.3-0.3h-0.6v1.3h-0.7L233.9,29.5L233.9,29.5z M234.4,30.9h0.6
			c0.4,0,0.6-0.3,0.6-0.4c0-0.4-0.3-0.4-0.4-0.4h-0.6v0.8L234.4,30.9L234.4,30.9z"/>
	</g>
</g>
</svg>
